<svg width="512" height="512" viewBox="0 0 512 512" fill="none" xmlns="http://www.w3.org/2000/svg">
<rect width="512" height="512" rx="120" fill="#FED900"/>
<path d="M299.076 409.042C314.19 405.129 353.215 393.208 384.842 384.003C406.859 377.594 421.542 355.807 418.425 333.089C407.451 253.11 396.973 172.185 390.708 123.15C387.352 96.8761 364.139 77.7601 337.718 79.6372C318.925 80.9723 300.137 82.3598 281.352 83.8008L245.18 86.8154C239.799 87.2382 234.178 87.9901 228.801 87.9762L228.128 88.0906C208.804 91.2127 188.637 91.774 169.135 93.6833C161.155 94.4664 152.839 94.9411 145.063 96.9543C143.795 97.2766 142.54 97.6473 141.3 98.0666C140.059 98.4859 138.84 98.9502 137.634 99.4596C136.428 99.9689 135.246 100.527 134.082 101.126C132.921 101.726 131.781 102.37 130.669 103.056C121.85 108.49 118.011 115.17 110.96 120.545C101.029 126.543 93.6064 139.98 90.8274 151.024C89.3616 156.845 88.485 162.888 89.0671 168.879C90.5155 183.811 94.1435 198.561 96.9571 213.278L110.991 286.506L124.037 354.938C126.192 366.321 127.72 377.807 130.562 389.052C130.939 390.587 131.372 392.108 131.865 393.615C132.357 395.119 132.904 396.602 133.507 398.068C134.11 399.53 134.768 400.968 135.479 402.382C136.189 403.799 136.955 405.185 137.769 406.54C146.421 420.688 160.202 429.604 176.273 433.28C182.011 434.593 188.134 435.193 194.001 434.535C207.404 433.034 221.448 428.297 234.573 424.957C256.026 419.444 277.523 414.139 299.076 409.042Z" fill="#195CA1"/>
<path d="M360.613 367.468C382.668 362.953 393.517 359.391 415.684 355.458C411.07 366.147 403.145 375.072 393.076 380.916L391.428 381.872C368.191 387.059 322.13 403.075 299.083 409.042C277.53 414.139 256.029 419.444 234.58 424.957C221.455 428.298 207.414 433.034 194.008 434.535C188.145 435.193 182.018 434.594 176.28 433.28C160.209 429.604 146.428 420.688 137.776 406.54C136.962 405.185 136.196 403.799 135.485 402.382C134.775 400.968 134.117 399.53 133.514 398.068C132.911 396.602 132.363 395.119 131.871 393.615C131.379 392.108 130.943 390.587 130.565 389.052C127.724 377.808 126.196 366.321 124.04 354.938L110.994 286.506L96.9605 213.278C94.1469 198.562 90.5189 183.811 89.0705 168.88C88.4884 162.888 89.365 156.845 90.8308 151.024C93.6098 139.981 101.029 126.543 110.963 120.545L111.185 122.541C106.358 130.569 103.683 142.067 104.029 151.409C104.473 163.301 107.869 175.092 110.298 186.697L121.726 241.082L134.914 304.057C138.4 321.372 141.588 338.85 145.787 356.005C150.119 373.691 158.376 386.505 174.232 395.951C183.325 401.367 193.11 403.716 203.672 402.649C215.924 401.415 228.343 397.392 240.315 394.468C258.389 390.123 276.494 385.923 294.637 381.872C316.565 376.782 338.558 371.979 360.613 367.468Z" fill="#4DA6C8"/>
<path d="M341.615 301.665C340.288 313.873 339.04 324.185 328.811 332.48C310.277 347.512 255.902 356.147 232.856 353.642C228.784 353.198 225.059 352.256 221.182 350.932C218.58 349.653 216.071 348.617 213.722 346.864C194.314 332.394 191.808 299.004 188.645 276.817L246.557 256.886L246.644 257.974C247.437 267.499 250.58 290.625 253.716 299.101C254.696 301.755 256.2 304.358 258.463 306.121C261.18 308.238 264.586 308.866 267.944 308.387C272.774 307.701 279.507 306.44 282.4 302.074C286.347 296.124 282.805 280.584 281.284 273.816C280.394 269.842 278.89 264.918 275.872 262.069C263.907 250.773 217.284 239.28 199.504 227.8C187.006 219.733 180.616 207.529 177.605 193.239C173.828 175.31 167.199 144.18 177.91 128.216C186.884 114.834 205.132 110.957 219.945 108.306C242.368 104.293 282.729 99.8232 301.763 113.257C320.09 126.196 320.863 154.901 324.286 175.106C311.666 179.441 298.395 182.521 285.588 186.319C280.861 187.719 275.432 188.911 271.059 191.184C270.348 190.754 270.109 190.539 269.811 189.722C268.761 186.839 268.595 183.072 268.183 180.047C267.07 171.908 266.363 163.411 264.125 155.504C263.162 152.091 261.575 147.87 258.186 146.186C253.522 143.868 244.35 144.09 239.44 145.989C236.713 147.046 234.436 148.92 233.279 151.654C230.631 157.916 233.549 172.954 236.238 179.261C237.277 181.676 238.352 183.613 240.337 185.383C245.67 190.141 253.231 192.813 259.759 195.533C280.522 204.192 320.634 215.7 330.596 236.899C336.902 250.323 338.871 272.364 340.361 287.226C340.818 291.79 340.627 297.261 341.615 301.665Z" fill="#FEFEFE"/>
<path d="M342.935 299.413L341.941 299.988L341.705 299.226L342.935 299.413Z" fill="#FEFEFE"/>
</svg>
